
<?xml version="1.0" encoding="utf-8"?>

<svg viewBox="0 0 800 800" fill="none" xmlns="http://www.w3.org/2000/svg" xmlns:xlink="http://www.w3.org/1999/xlink" xml:space="preserve" 

 fill-rule="evenodd"
  >
<path d="M750 475H721.25H250C236.25 475 225 486.25 225 500C225 631.5 317.5 741.75 441 768.75C460 772.75 479.75 775 500 775C651.75 775 775 651.75 775 500C775 486.25 763.75 475 750 475ZM500 725C487.5 725 475.5 724 463.5 722C365 705.75 287.5 625.25 276.5 525H377.5C378.25 529.25 379.5 533.25 380.5 537.5C382 541.75 383.5 546 385.25 550C404.75 594 448.75 625 500 625C551.25 625 595.25 594 614.75 550C616.5 546 618 541.75 619.5 537.5C620.5 533.25 621.75 529.25 622.5 525H665.75H723.5C711.25 637.25 615.5 725 500 725Z" fill="currentColor"/>
<path d="M200 500C200 472.5 222.5 450 250 450H724C724.75 441.75 725 433.5 725 425C725 258.25 607.75 118.75 451.75 83.75L467.75 67.75C477.5 58 477.5 42 467.75 32.25C458 22.5 442 22.5 432.25 32.25L406.75 57.75L397.25 38.75C391.25 26.5 376.25 21.5 363.75 27.75C351.5 33.75 346.5 48.75 352.75 61.25L360 75.75C174 83.75 25 237 25 425C25 618 182 775 375 775C376.5 775 378.25 775 379.75 774.75C274 728.5 200 622.75 200 500Z" fill="currentColor"/>
</svg>
